{
  "accessors": [
    {
      "bufferView": 3,
      "componentType": 5126,
      "count": 396,
      "max": [
        0.2008151113986969,
        0.025000087916851044,
        0.15054363012313843
      ],
      "min": [
        -0.2008151113986969,
        0.0007610004395246506,
        -0.11486814171075821
      ],
      "type": "VEC3"
    },
    {
      "bufferView": 3,
      "byteOffset": 4752,
      "componentType": 5126,
      "count": 396,
      "max": [
        1.0,
        1.0,
        1.0
      ],
      "min": [
        -1.0,
        -1.0,
        -0.9999327063560486
      ],
      "type": "VEC3"
    },
    {
      "bufferView": 2,
      "componentType": 5126,
      "count": 396,
      "max": [
        0.9949779510498047,
        0.9949848651885986
      ],
      "min": [
        0.005015047267079353,
        0.10436886548995972
      ],
      "type": "VEC2"
    },
    {
      "bufferView": 1,
      "componentType": 5125,
      "count": 1068,
      "type": "SCALAR"
    },
    {
      "bufferView": 3,
      "byteOffset": 9504,
      "componentType": 5126,
      "count": 32,
      "max": [
        0.19081510603427887,
        0.016400180757045746,
        0.1405436098575592
      ],
      "min": [
        -0.19081510603427887,
        0.016190901398658752,
        -0.09904591739177704
      ],
      "type": "VEC3"
    },
    {
      "bufferView": 3,
      "byteOffset": 9888,
      "componentType": 5126,
      "count": 32,
      "max": [
        0.003399980254471302,
        -0.9999768733978271,
        0.004499895963817835
      ],
      "min": [
        -0.005099882371723652,
        -0.9999997615814209,
        -0.004499953705817461
      ],
      "type": "VEC3"
    },
    {
      "bufferView": 2,
      "byteOffset": 3168,
      "componentType": 5126,
      "count": 32,
      "max": [
        1.0,
        1.0
      ],
      "min": [
        0.0,
        0.0
      ],
      "type": "VEC2"
    },
    {
      "bufferView": 1,
      "byteOffset": 4272,
      "componentType": 5125,
      "count": 90,
      "type": "SCALAR"
    },
    {
      "bufferView": 5,
      "componentType": 5126,
      "count": 4,
      "max": [
        1.0,
        0.0,
        8.742277657347586e-08,
        0.0,
        8.742277657347586e-08,
        1.0,
        1.0,
        0.0,
        0.0,
        1.0,
        1.0,
        0.0,
        0.0,
        0.11195799708366394,
        0.0,
        1.0
      ],
      "min": [
        -1.0,
        0.0,
        0.0,
        0.0,
        0.0,
        0.0,
        0.0,
        0.0,
        0.0,
        0.0,
        0.0,
        0.0,
        -1.0928041804803001e-09,
        -0.15054360032081604,
        -0.012500222772359848,
        1.0
      ],
      "type": "MAT4"
    },
    {
      "bufferView": 0,
      "componentType": 5123,
      "count": 396,
      "type": "VEC4"
    },
    {
      "bufferView": 4,
      "componentType": 5126,
      "count": 396,
      "max": [
        1.0,
        0.0,
        0.0,
        0.0
      ],
      "min": [
        1.0,
        0.0,
        0.0,
        0.0
      ],
      "type": "VEC4"
    },
    {
      "bufferView": 0,
      "byteOffset": 3168,
      "componentType": 5123,
      "count": 32,
      "type": "VEC4"
    },
    {
      "bufferView": 4,
      "byteOffset": 6336,
      "componentType": 5126,
      "count": 32,
      "max": [
        1.0,
        0.0,
        0.0,
        0.0
      ],
      "min": [
        1.0,
        0.0,
        0.0,
        0.0
      ],
      "type": "VEC4"
    },
    {
      "bufferView": 6,
      "componentType": 5126,
      "count": 1,
      "max": [
        0.0
      ],
      "min": [
        0.0
      ],
      "type": "SCALAR"
    },
    {
      "bufferView": 7,
      "componentType": 5126,
      "count": 1,
      "max": [
        -7.590405637358799e-09,
        0.9848077893257141,
        -0.17364808917045593,
        4.304731149318286e-08
      ],
      "min": [
        -7.590405637358799e-09,
        0.9848077893257141,
        -0.17364808917045593,
        4.304731149318286e-08
      ],
      "type": "VEC4"
    }
  ],
  "animations": [
    {
      "channels": [
        {
          "sampler": 0,
          "target": {
            "node": 7,
            "path": "rotation"
          }
        }
      ],
      "name": "Laptop_l@Open_Pose",
      "samplers": [
        {
          "input": 13,
          "interpolation": "LINEAR",
          "output": 14
        }
      ]
    }
  ],
  "asset": {
    "extras": {
      "author": "Gonsaku (https://sketchfab.com/Gonsaku)",
      "license": "SKETCHFAB Standard (https://sketchfab.com/licenses)",
      "source": "https://sketchfab.com/3d-models/laptop-603062a9eae348b99c8f34533c201964",
      "title": "Laptop"
    },
    "generator": "Sketchfab-16.72.0",
    "version": "2.0"
  },
  "bufferViews": [
    {
      "buffer": 0,
      "byteLength": 3424,
      "byteStride": 8,
      "name": "shortBufferViews",
      "target": 34962
    },
    {
      "buffer": 0,
      "byteLength": 4632,
      "byteOffset": 3424,
      "name": "floatBufferViews",
      "target": 34963
    },
    {
      "buffer": 0,
      "byteLength": 3424,
      "byteOffset": 8056,
      "byteStride": 8,
      "name": "floatBufferViews",
      "target": 34962
    },
    {
      "buffer": 0,
      "byteLength": 10272,
      "byteOffset": 11480,
      "byteStride": 12,
      "name": "floatBufferViews",
      "target": 34962
    },
    {
      "buffer": 0,
      "byteLength": 6848,
      "byteOffset": 21752,
      "byteStride": 16,
      "name": "floatBufferViews",
      "target": 34962
    },
    {
      "buffer": 0,
      "byteLength": 256,
      "byteOffset": 28600,
      "name": "floatBufferViews"
    },
    {
      "buffer": 0,
      "byteLength": 4,
      "byteOffset": 28856,
      "name": "floatBufferViews"
    },
    {
      "buffer": 0,
      "byteLength": 16,
      "byteOffset": 28860,
      "byteStride": 16,
      "name": "floatBufferViews"
    }
  ],
  "buffers": [
    {
      "byteLength": 28876,
      "uri": "scene.bin"
    }
  ],
  "images": [
    {
      "uri": "textures/M_Laptop_l_A_baseColor.png"
    },
    {
      "uri": "textures/M_Laptop_l_B_emissive.png"
    }
  ],
  "materials": [
    {
      "doubleSided": true,
      "name": "M_Laptop_l_A",
      "pbrMetallicRoughness": {
        "baseColorTexture": {
          "index": 0
        },
        "metallicFactor": 0.0,
        "roughnessFactor": 0.9
      }
    },
    {
      "doubleSided": true,
      "emissiveFactor": [
        1.0,
        1.0,
        1.0
      ],
      "emissiveTexture": {
        "index": 1
      },
      "name": "M_Laptop_l_B",
      "pbrMetallicRoughness": {
        "baseColorFactor": [
          0.0,
          0.0,
          0.0,
          1.0
        ],
        "metallicFactor": 0.0
      }
    }
  ],
  "meshes": [
    {
      "name": "Object_0",
      "primitives": [
        {
          "attributes": {
            "JOINTS_0": 9,
            "NORMAL": 1,
            "POSITION": 0,
            "TEXCOORD_0": 2,
            "WEIGHTS_0": 10
          },
          "indices": 3,
          "material": 0,
          "mode": 4
        }
      ]
    },
    {
      "name": "Object_1",
      "primitives": [
        {
          "attributes": {
            "JOINTS_0": 11,
            "NORMAL": 5,
            "POSITION": 4,
            "TEXCOORD_0": 6,
            "WEIGHTS_0": 12
          },
          "indices": 7,
          "material": 1,
          "mode": 4
        }
      ]
    }
  ],
  "nodes": [
    {
      "children": [
        1
      ],
      "matrix": [
        1.0,
        0.0,
        0.0,
        0.0,
        0.0,
        2.220446049250313e-16,
        -1.0,
        0.0,
        0.0,
        1.0,
        2.220446049250313e-16,
        0.0,
        0.0,
        0.0,
        0.0,
        1.0
      ],
      "name": "Sketchfab_model"
    },
    {
      "children": [
        2
      ],
      "name": "root"
    },
    {
      "children": [
        3
      ],
      "matrix": [
        1.0,
        0.0,
        0.0,
        0.0,
        0.0,
        2.220446049250313e-16,
        1.0,
        0.0,
        0.0,
        -1.0,
        2.220446049250313e-16,
        0.0,
        0.0,
        0.0,
        0.0,
        1.0
      ],
      "name": "GLTF_SceneRootNode"
    },
    {
      "children": [
        4
      ],
      "name": "Laptop_l_3"
    },
    {
      "children": [
        5,
        11,
        12,
        9
      ],
      "name": "GLTF_created_0"
    },
    {
      "children": [
        6
      ],
      "name": "GLTF_created_0_rootJoint"
    },
    {
      "children": [
        7
      ],
      "name": "Bone_2"
    },
    {
      "children": [
        8
      ],
      "name": "Bone1_1",
      "rotation": [
        3.090862321641907e-08,
        0.7071068286895752,
        0.7071068286895752,
        3.090862321641907e-08
      ],
      "translation": [
        0.0,
        0.012500222772359848,
        -0.11195799708366394
      ]
    },
    {
      "name": "Bone1_End_0",
      "rotation": [
        0.0,
        4.371138828673793e-08,
        0.0,
        1.0
      ],
      "translation": [
        0.0,
        0.26250159740448,
        0.0
      ]
    },
    {
      "children": [
        10
      ],
      "name": "M_Laptop_l_4_correction"
    },
    {
      "name": "M_Laptop_l_4"
    },
    {
      "mesh": 0,
      "name": "Object_11",
      "skin": 0
    },
    {
      "mesh": 1,
      "name": "Object_12",
      "skin": 0
    }
  ],
  "samplers": [
    {
      "magFilter": 9729,
      "minFilter": 9987,
      "wrapS": 10497,
      "wrapT": 10497
    }
  ],
  "scene": 0,
  "scenes": [
    {
      "name": "Sketchfab_Scene",
      "nodes": [
        0
      ]
    }
  ],
  "skins": [
    {
      "inverseBindMatrices": 8,
      "joints": [
        5,
        6,
        7,
        8
      ],
      "skeleton": 5
    }
  ],
  "textures": [
    {
      "sampler": 0,
      "source": 0
    },
    {
      "sampler": 0,
      "source": 1
    }
  ]
}
