{
  "accessors": [
    {
      "bufferView": 2,
      "componentType": 5126,
      "count": 65532,
      "max": [
        9.26424503326416,
        4.99138879776001,
        20.0349178314209
      ],
      "min": [
        0.8993229866027832,
        0.5581259727478027,
        9.424169540405273
      ],
      "type": "VEC3"
    },
    {
      "bufferView": 2,
      "byteOffset": 786384,
      "componentType": 5126,
      "count": 65532,
      "max": [
        0.9999998807907104,
        0.9999993443489075,
        0.9999998807907104
      ],
      "min": [
        -0.997923731803894,
        -0.999995231628418,
        -0.9999786615371704
      ],
      "type": "VEC3"
    },
    {
      "bufferView": 1,
      "componentType": 5126,
      "count": 65532,
      "max": [
        0.9997289776802063,
        0.9323729872703552
      ],
      "min": [
        0.00024399999529123306,
        0.0002460000105202198
      ],
      "type": "VEC2"
    },
    {
      "bufferView": 0,
      "componentType": 5125,
      "count": 337995,
      "type": "SCALAR"
    },
    {
      "bufferView": 2,
      "byteOffset": 1572768,
      "componentType": 5126,
      "count": 65532,
      "max": [
        9.21213436126709,
        4.990911960601807,
        19.901582717895508
      ],
      "min": [
        -7.987462043762207,
        -4.530224800109863,
        0.02804500050842762
      ],
      "type": "VEC3"
    },
    {
      "bufferView": 2,
      "byteOffset": 2359152,
      "componentType": 5126,
      "count": 65532,
      "max": [
        0.9999971389770508,
        0.999996542930603,
        0.9986094832420349
      ],
      "min": [
        -0.9999998807907104,
        -0.9999986290931702,
        -1.0
      ],
      "type": "VEC3"
    },
    {
      "bufferView": 1,
      "byteOffset": 524256,
      "componentType": 5126,
      "count": 65532,
      "max": [
        0.9996529817581177,
        0.9266719818115234
      ],
      "min": [
        0.00024399999529123306,
        0.0002680000034160912
      ],
      "type": "VEC2"
    },
    {
      "bufferView": 0,
      "byteOffset": 1351980,
      "componentType": 5125,
      "count": 328908,
      "type": "SCALAR"
    },
    {
      "bufferView": 2,
      "byteOffset": 3145536,
      "componentType": 5126,
      "count": 65532,
      "max": [
        9.268792152404785,
        3.2162320613861084,
        20.028759002685547
      ],
      "min": [
        -4.010634899139404,
        -4.560911178588867,
        0.05934299901127815
      ],
      "type": "VEC3"
    },
    {
      "bufferView": 2,
      "byteOffset": 3931920,
      "componentType": 5126,
      "count": 65532,
      "max": [
        0.9999998807907104,
        0.9999971389770508,
        0.9999991059303284
      ],
      "min": [
        -0.9999908804893494,
        -0.999999463558197,
        -1.0
      ],
      "type": "VEC3"
    },
    {
      "bufferView": 1,
      "byteOffset": 1048512,
      "componentType": 5126,
      "count": 65532,
      "max": [
        0.9996780157089233,
        0.7282710075378418
      ],
      "min": [
        0.00024399999529123306,
        0.0002680000034160912
      ],
      "type": "VEC2"
    },
    {
      "bufferView": 0,
      "byteOffset": 2667612,
      "componentType": 5125,
      "count": 319869,
      "type": "SCALAR"
    },
    {
      "bufferView": 2,
      "byteOffset": 4718304,
      "componentType": 5126,
      "count": 65532,
      "max": [
        9.268641471862793,
        1.4162960052490234,
        20.028759002685547
      ],
      "min": [
        -7.9769511222839355,
        -4.532046794891357,
        9.419818878173828
      ],
      "type": "VEC3"
    },
    {
      "bufferView": 2,
      "byteOffset": 5504688,
      "componentType": 5126,
      "count": 65532,
      "max": [
        0.9999998807907104,
        0.9999862313270569,
        1.0
      ],
      "min": [
        -0.9999997615814209,
        -0.999999463558197,
        -0.9997546672821045
      ],
      "type": "VEC3"
    },
    {
      "bufferView": 1,
      "byteOffset": 1572768,
      "componentType": 5126,
      "count": 65532,
      "max": [
        0.9997249841690063,
        0.7008860111236572
      ],
      "min": [
        0.00024399999529123306,
        0.0002629999944474548
      ],
      "type": "VEC2"
    },
    {
      "bufferView": 0,
      "byteOffset": 3947088,
      "componentType": 5125,
      "count": 289053,
      "type": "SCALAR"
    },
    {
      "bufferView": 2,
      "byteOffset": 6291072,
      "componentType": 5126,
      "count": 65532,
      "max": [
        9.283207893371582,
        4.767837047576904,
        19.97384262084961
      ],
      "min": [
        -7.97565221786499,
        -4.543900966644287,
        6.518205165863037
      ],
      "type": "VEC3"
    },
    {
      "bufferView": 2,
      "byteOffset": 7077456,
      "componentType": 5126,
      "count": 65532,
      "max": [
        0.9999973773956299,
        0.9999926686286926,
        0.9999984502792358
      ],
      "min": [
        -0.9999991059303284,
        -0.9999992251396179,
        -0.9997124671936035
      ],
      "type": "VEC3"
    },
    {
      "bufferView": 1,
      "byteOffset": 2097024,
      "componentType": 5126,
      "count": 65532,
      "max": [
        0.9995620250701904,
        0.6070460081100464
      ],
      "min": [
        0.00024399999529123306,
        0.00025099999038502574
      ],
      "type": "VEC2"
    },
    {
      "bufferView": 0,
      "byteOffset": 5103300,
      "componentType": 5125,
      "count": 276927,
      "type": "SCALAR"
    },
    {
      "bufferView": 2,
      "byteOffset": 7863840,
      "componentType": 5126,
      "count": 65532,
      "max": [
        9.30433464050293,
        5.007658958435059,
        9.614399909973145
      ],
      "min": [
        -7.926314830780029,
        -4.575201988220215,
        0.08615799993276596
      ],
      "type": "VEC3"
    },
    {
      "bufferView": 2,
      "byteOffset": 8650224,
      "componentType": 5126,
      "count": 65532,
      "max": [
        1.0,
        1.0,
        0.9994902610778809
      ],
      "min": [
        -0.9999978542327881,
        -0.9999995231628418,
        -0.9999998807907104
      ],
      "type": "VEC3"
    },
    {
      "bufferView": 1,
      "byteOffset": 2621280,
      "componentType": 5126,
      "count": 65532,
      "max": [
        0.999642014503479,
        0.29428499937057495
      ],
      "min": [
        0.00024399999529123306,
        0.0002460000105202198
      ],
      "type": "VEC2"
    },
    {
      "bufferView": 0,
      "byteOffset": 6211008,
      "componentType": 5125,
      "count": 317430,
      "type": "SCALAR"
    },
    {
      "bufferView": 2,
      "byteOffset": 9436608,
      "componentType": 5126,
      "count": 65532,
      "max": [
        9.29470443725586,
        5.007658958435059,
        9.576921463012695
      ],
      "min": [
        -7.864188194274902,
        1.478018045425415,
        0.09809999912977219
      ],
      "type": "VEC3"
    },
    {
      "bufferView": 2,
      "byteOffset": 10222992,
      "componentType": 5126,
      "count": 65532,
      "max": [
        1.0,
        1.0,
        0.9935862421989441
      ],
      "min": [
        -0.9999875426292419,
        -0.9995903372764587,
        -0.9999988675117493
      ],
      "type": "VEC3"
    },
    {
      "bufferView": 1,
      "byteOffset": 3145536,
      "componentType": 5126,
      "count": 65532,
      "max": [
        0.9995409846305847,
        0.2067440003156662
      ],
      "min": [
        0.00024399999529123306,
        0.00024399999529123306
      ],
      "type": "VEC2"
    },
    {
      "bufferView": 0,
      "byteOffset": 7480728,
      "componentType": 5125,
      "count": 325041,
      "type": "SCALAR"
    },
    {
      "bufferView": 2,
      "byteOffset": 11009376,
      "componentType": 5126,
      "count": 65532,
      "max": [
        9.286502838134766,
        5.076132774353027,
        19.981555938720703
      ],
      "min": [
        -7.9769511222839355,
        1.2080299854278564,
        0.17336200177669525
      ],
      "type": "VEC3"
    },
    {
      "bufferView": 2,
      "byteOffset": 11795760,
      "componentType": 5126,
      "count": 65532,
      "max": [
        0.9999997615814209,
        1.0,
        0.9999898672103882
      ],
      "min": [
        -0.9999993443489075,
        -0.9771907329559326,
        -0.9999992251396179
      ],
      "type": "VEC3"
    },
    {
      "bufferView": 1,
      "byteOffset": 3669792,
      "componentType": 5126,
      "count": 65532,
      "max": [
        0.9997239708900452,
        0.35229501128196716
      ],
      "min": [
        0.00024399999529123306,
        0.00024500000290572643
      ],
      "type": "VEC2"
    },
    {
      "bufferView": 0,
      "byteOffset": 8780892,
      "componentType": 5125,
      "count": 272559,
      "type": "SCALAR"
    },
    {
      "bufferView": 2,
      "byteOffset": 12582144,
      "componentType": 5126,
      "count": 65532,
      "max": [
        8.584137916564941,
        5.074003219604492,
        19.97384262084961
      ],
      "min": [
        -7.981350898742676,
        -5.686653137207031,
        2.4014980792999268
      ],
      "type": "VEC3"
    },
    {
      "bufferView": 2,
      "byteOffset": 13368528,
      "componentType": 5126,
      "count": 65532,
      "max": [
        0.999923586845398,
        1.0,
        1.0
      ],
      "min": [
        -0.9999998807907104,
        -0.9999996423721313,
        -0.9999849796295166
      ],
      "type": "VEC3"
    },
    {
      "bufferView": 1,
      "byteOffset": 4194048,
      "componentType": 5126,
      "count": 65532,
      "max": [
        0.9996960163116455,
        0.48901399970054626
      ],
      "min": [
        0.00024399999529123306,
        0.00027799999224953353
      ],
      "type": "VEC2"
    },
    {
      "bufferView": 0,
      "byteOffset": 9871128,
      "componentType": 5125,
      "count": 267534,
      "type": "SCALAR"
    },
    {
      "bufferView": 2,
      "byteOffset": 14154912,
      "componentType": 5126,
      "count": 62379,
      "max": [
        8.588629722595215,
        1.3382869958877563,
        19.975616455078125
      ],
      "min": [
        -7.949769020080566,
        -5.703321933746338,
        2.0956380367279053
      ],
      "type": "VEC3"
    },
    {
      "bufferView": 2,
      "byteOffset": 14903460,
      "componentType": 5126,
      "count": 62379,
      "max": [
        0.9999845027923584,
        0.9998167753219604,
        0.9999958872795105
      ],
      "min": [
        -0.9999887347221375,
        -0.9999998807907104,
        -0.9999978542327881
      ],
      "type": "VEC3"
    },
    {
      "bufferView": 1,
      "byteOffset": 4718304,
      "componentType": 5126,
      "count": 62379,
      "max": [
        0.9996680021286011,
        0.5684459805488586
      ],
      "min": [
        0.00024399999529123306,
        0.0002479999966453761
      ],
      "type": "VEC2"
    },
    {
      "bufferView": 0,
      "byteOffset": 10941264,
      "componentType": 5125,
      "count": 264834,
      "type": "SCALAR"
    }
  ],
  "asset": {
    "extras": {
      "author": "Metazeon (https://sketchfab.com/Metazeon)",
      "license": "CC-BY-4.0 (http://creativecommons.org/licenses/by/4.0/)",
      "source": "https://sketchfab.com/3d-models/fujifilm-instax-mini40-b889ee1a9cad45a091bc15ee6cb0878e",
      "title": "FUJIFILM Instax mini40"
    },
    "generator": "Sketchfab-16.54.0",
    "version": "2.0"
  },
  "bufferViews": [
    {
      "buffer": 0,
      "byteLength": 12000600,
      "name": "floatBufferViews",
      "target": 34963
    },
    {
      "buffer": 0,
      "byteLength": 5217336,
      "byteOffset": 12000600,
      "byteStride": 8,
      "name": "floatBufferViews",
      "target": 34962
    },
    {
      "buffer": 0,
      "byteLength": 15652008,
      "byteOffset": 17217936,
      "byteStride": 12,
      "name": "floatBufferViews",
      "target": 34962
    }
  ],
  "buffers": [
    {
      "byteLength": 32869944,
      "uri": "scene.bin"
    }
  ],
  "extensionsUsed": [
    "KHR_materials_specular"
  ],
  "images": [
    {
      "uri": "textures/FUJIFILM_Instax_mini40_RC_LOD0_u0_v0_baseColor.png"
    }
  ],
  "materials": [
    {
      "doubleSided": true,
      "extensions": {
        "KHR_materials_specular": {
          "specularColorFactor": [
            1.0,
            1.0,
            1.0
          ],
          "specularFactor": 0.1
        }
      },
      "name": "FUJIFILM_Instax_mini40_RC_LOD0_u0_v0",
      "pbrMetallicRoughness": {
        "baseColorTexture": {
          "index": 0
        },
        "metallicFactor": 0.1,
        "roughnessFactor": 0.9
      }
    }
  ],
  "meshes": [
    {
      "name": "Object_0",
      "primitives": [
        {
          "attributes": {
            "NORMAL": 1,
            "POSITION": 0,
            "TEXCOORD_0": 2
          },
          "indices": 3,
          "material": 0,
          "mode": 4
        }
      ]
    },
    {
      "name": "Object_1",
      "primitives": [
        {
          "attributes": {
            "NORMAL": 5,
            "POSITION": 4,
            "TEXCOORD_0": 6
          },
          "indices": 7,
          "material": 0,
          "mode": 4
        }
      ]
    },
    {
      "name": "Object_2",
      "primitives": [
        {
          "attributes": {
            "NORMAL": 9,
            "POSITION": 8,
            "TEXCOORD_0": 10
          },
          "indices": 11,
          "material": 0,
          "mode": 4
        }
      ]
    },
    {
      "name": "Object_3",
      "primitives": [
        {
          "attributes": {
            "NORMAL": 13,
            "POSITION": 12,
            "TEXCOORD_0": 14
          },
          "indices": 15,
          "material": 0,
          "mode": 4
        }
      ]
    },
    {
      "name": "Object_4",
      "primitives": [
        {
          "attributes": {
            "NORMAL": 17,
            "POSITION": 16,
            "TEXCOORD_0": 18
          },
          "indices": 19,
          "material": 0,
          "mode": 4
        }
      ]
    },
    {
      "name": "Object_5",
      "primitives": [
        {
          "attributes": {
            "NORMAL": 21,
            "POSITION": 20,
            "TEXCOORD_0": 22
          },
          "indices": 23,
          "material": 0,
          "mode": 4
        }
      ]
    },
    {
      "name": "Object_6",
      "primitives": [
        {
          "attributes": {
            "NORMAL": 25,
            "POSITION": 24,
            "TEXCOORD_0": 26
          },
          "indices": 27,
          "material": 0,
          "mode": 4
        }
      ]
    },
    {
      "name": "Object_7",
      "primitives": [
        {
          "attributes": {
            "NORMAL": 29,
            "POSITION": 28,
            "TEXCOORD_0": 30
          },
          "indices": 31,
          "material": 0,
          "mode": 4
        }
      ]
    },
    {
      "name": "Object_8",
      "primitives": [
        {
          "attributes": {
            "NORMAL": 33,
            "POSITION": 32,
            "TEXCOORD_0": 34
          },
          "indices": 35,
          "material": 0,
          "mode": 4
        }
      ]
    },
    {
      "name": "Object_9",
      "primitives": [
        {
          "attributes": {
            "NORMAL": 37,
            "POSITION": 36,
            "TEXCOORD_0": 38
          },
          "indices": 39,
          "material": 0,
          "mode": 4
        }
      ]
    }
  ],
  "nodes": [
    {
      "children": [
        1
      ],
      "matrix": [
        -0.9999885559082031,
        1.0616150752815549e-18,
        -0.004781089257448912,
        0.0,
        -0.004781089257448912,
        -2.2204206382618955e-16,
        0.9999885559082031,
        0.0,
        0.0,
        1.0,
        2.220446049250313e-16,
        0.0,
        0.0,
        0.0,
        0.0,
        1.0
      ],
      "name": "Sketchfab_model"
    },
    {
      "children": [
        2,
        3,
        4,
        5,
        6,
        7,
        8,
        9,
        10,
        11
      ],
      "name": "FUJIFILM_Instax_mini40_RC_LOD0.obj.cleaner.materialmerger.gles"
    },
    {
      "mesh": 0,
      "name": "Object_2"
    },
    {
      "mesh": 1,
      "name": "Object_3"
    },
    {
      "mesh": 2,
      "name": "Object_4"
    },
    {
      "mesh": 3,
      "name": "Object_5"
    },
    {
      "mesh": 4,
      "name": "Object_6"
    },
    {
      "mesh": 5,
      "name": "Object_7"
    },
    {
      "mesh": 6,
      "name": "Object_8"
    },
    {
      "mesh": 7,
      "name": "Object_9"
    },
    {
      "mesh": 8,
      "name": "Object_10"
    },
    {
      "mesh": 9,
      "name": "Object_11"
    }
  ],
  "samplers": [
    {
      "magFilter": 9729,
      "minFilter": 9987,
      "wrapS": 10497,
      "wrapT": 10497
    }
  ],
  "scene": 0,
  "scenes": [
    {
      "name": "Sketchfab_Scene",
      "nodes": [
        0
      ]
    }
  ],
  "textures": [
    {
      "sampler": 0,
      "source": 0
    }
  ]
}
